# xmcd
#
# Track frame offsets:
#	150
#	17833
#	34640
#	52576
#	67070
#	78284
#	92880
#	114285
#	132580
#	151358
#	164222
#	180934
#
# Disc length: 2642 seconds
#
# Revision: 9
# Processed by: cddbd v1.5.2PL0 Copyright (c) Steve Scherf et al.
# Submitted via: audiograbber 1.82.02
#
DISCID=940a500c
DTITLE=Various Artist - Jazz and '80s
DYEAR=2005
DGENRE=Jazz
TTITLE0=The Cooltrane Quartet (The Clash) - Should I Stay Or Should I Go
TTITLE1=Karen Souza (Culture Club) - Do You Really Want To Hurt Me
TTITLE2=Urselle (Prince and The Revolution) - Purple Rain
TTITLE3=Jamie Lancaster (The Cure) - Boys Don't Cry
TTITLE4=48th St. Collective (Eurythmics) - Sweet Dreams (Are Made Of This)
TTITLE5=Stella Starlight Trio (Simple Minds) - Don't You (Forget About Me)
TTITLE6=James Farrelli (Phil Collins) - In The Air Tonight
TTITLE7=Dinah Eastwood (Duran Duran) - Hungry Like The Wolf
TTITLE8=The Cooltrane Quartet (Madonna) - Like A Virgin
TTITLE9=Sawa Kobayashi (Guns n'Roses) - Patience
TTITLE10=Michelle Simonal (U2) - With Or Without You
TTITLE11=George White Group (The Family) - Nothing Compares 2 U
EXTD=YEAR: 2005
EXTT0=
EXTT1=
EXTT2=
EXTT3=
EXTT4=
EXTT5=
EXTT6=
EXTT7=
EXTT8=
EXTT9=
EXTT10=
EXTT11=
PLAYORDER=
